<svg width="30" height="29" viewBox="0 0 30 29" fill="none" xmlns="http://www.w3.org/2000/svg">
<path d="M20.3036 17.5L21.5893 25.0179L14.8571 21.4643L8.10714 25.0179L9.41072 17.5L3.94643 12.1964L11.4821 11.0893L14.8571 4.26786L18.2321 11.0893L25.7679 12.1964L20.3036 17.5ZM29.7143 11.125C29.7143 10.5893 29.1429 10.375 28.7143 10.3036L19.75 9L15.7321 0.874998C15.5714 0.535713 15.2679 0.142857 14.8571 0.142857C14.4464 0.142857 14.1429 0.535713 13.9821 0.874998L9.96429 9L1 10.3036C0.553571 10.375 0 10.5893 0 11.125C0 11.4464 0.232143 11.75 0.446429 11.9821L6.94643 18.3036L5.41071 27.2321C5.39286 27.3571 5.375 27.4643 5.375 27.5893C5.375 28.0536 5.60714 28.4821 6.125 28.4821C6.375 28.4821 6.60714 28.3929 6.83929 28.2679L14.8571 24.0536L22.875 28.2679C23.0893 28.3929 23.3393 28.4821 23.5893 28.4821C24.1071 28.4821 24.3214 28.0714 24.3214 27.5893C24.3214 27.4643 24.3214 27.3571 24.3036 27.2321L22.7679 18.3036L29.25 11.9821C29.4821 11.75 29.7143 11.4464 29.7143 11.125Z" fill="#1E0E62"/>
</svg>
