<svg width="81" height="50" viewBox="0 0 81 50" fill="none" xmlns="http://www.w3.org/2000/svg">
<path d="M68.04 21.7188C68.5589 20.5246 68.85 19.2188 68.85 17.8571C68.85 11.942 63.4078 7.14286 56.7 7.14286C54.2067 7.14286 51.878 7.8125 49.9542 8.95089C46.4484 3.59375 39.9052 0 32.4 0C21.2119 0 12.15 7.99107 12.15 17.8571C12.15 18.1585 12.1627 18.4598 12.1753 18.7612C5.08781 20.9598 0 26.9196 0 33.9286C0 42.8013 8.16328 50 18.225 50H64.8C73.748 50 81 43.6049 81 35.7143C81 28.8058 75.4313 23.0357 68.04 21.7188Z" fill="white"/>
</svg>
